<svg width="24" height="24" viewBox="0 0 24 24" fill="none" xmlns="http://www.w3.org/2000/svg">
<path d="M18.2378 6.147C17.0905 5.61611 15.8602 5.22496 14.5739 5.00094C14.5505 4.99662 14.5271 5.00742 14.515 5.02903C14.3568 5.31284 14.1815 5.68309 14.0588 5.97411C12.6753 5.76522 11.2989 5.76522 9.94374 5.97411C9.82099 5.67662 9.63936 5.31284 9.48043 5.02903C9.46836 5.00814 9.44496 4.99734 9.42154 5.00094C8.13593 5.22425 6.90567 5.61539 5.7577 6.147C5.74776 6.15132 5.73924 6.15853 5.73359 6.16789C3.40004 9.68387 2.76079 13.1134 3.07439 16.5005C3.0758 16.517 3.08503 16.5329 3.0978 16.543C4.63741 17.6833 6.12878 18.3755 7.59246 18.8344C7.61588 18.8416 7.6407 18.8329 7.65561 18.8135C8.00184 18.3366 8.31048 17.8338 8.57511 17.3051C8.59072 17.2741 8.57582 17.2374 8.5439 17.2251C8.05435 17.0378 7.5882 16.8095 7.1398 16.5502C7.10433 16.5293 7.10149 16.4781 7.13412 16.4536C7.22848 16.3823 7.32286 16.3081 7.41297 16.2332C7.42927 16.2195 7.45198 16.2166 7.47115 16.2253C10.417 17.5817 13.6062 17.5817 16.5172 16.2253C16.5364 16.2159 16.5591 16.2188 16.5761 16.2325C16.6662 16.3074 16.7606 16.3823 16.8557 16.4536C16.8883 16.4781 16.8862 16.5293 16.8507 16.5502C16.4023 16.8145 15.9361 17.0378 15.4459 17.2244C15.414 17.2367 15.3998 17.2741 15.4154 17.3051C15.6857 17.8331 15.9943 18.3359 16.3342 18.8128C16.3484 18.8329 16.3739 18.8416 16.3973 18.8344C17.8681 18.3755 19.3595 17.6833 20.8991 16.543C20.9126 16.5329 20.9211 16.5178 20.9225 16.5012C21.2978 12.5854 20.2939 9.18397 18.2612 6.16861C18.2562 6.15853 18.2477 6.15132 18.2378 6.147ZM9.01502 14.4381C8.12812 14.4381 7.39735 13.617 7.39735 12.6085C7.39735 11.6 8.11395 10.7788 9.01502 10.7788C9.92315 10.7788 10.6469 11.6072 10.6327 12.6085C10.6327 13.617 9.91606 14.4381 9.01502 14.4381ZM14.9961 14.4381C14.1092 14.4381 13.3784 13.617 13.3784 12.6085C13.3784 11.6 14.095 10.7788 14.9961 10.7788C15.9042 10.7788 16.6279 11.6072 16.6137 12.6085C16.6137 13.617 15.9042 14.4381 14.9961 14.4381Z" fill="black"/>
</svg>
