<svg width="24" height="24" viewBox="0 0 24 24" fill="none" xmlns="http://www.w3.org/2000/svg">
<path d="M11.995 21C9.53637 21 9.24653 20.987 8.28706 20.9451C7.53885 20.9205 6.80032 20.7687 6.10328 20.496C4.89726 20.0273 3.94362 19.0747 3.47474 17.8703C3.21219 17.1717 3.07058 16.4336 3.05597 15.6876C3 14.7315 3 14.4182 3 11.982C3 9.51996 3.01299 9.23253 3.05597 8.27944C3.0709 7.53445 3.2125 6.79741 3.47474 6.0998C3.94311 4.89374 4.8983 3.94029 6.10627 3.47305C6.80453 3.20978 7.54282 3.06801 8.28906 3.05389C9.24353 3 9.55736 3 11.995 3C14.4736 3 14.7585 3.01297 15.7029 3.05389C16.4511 3.06813 17.1914 3.20989 17.8917 3.47305C19.0994 3.94082 20.0544 4.89409 20.5233 6.0998C20.7902 6.80758 20.9326 7.55614 20.944 8.31237C21 9.26846 21 9.58084 21 12.016C21 14.4511 20.986 14.7705 20.944 15.7156C20.9292 16.4623 20.7872 17.201 20.5243 17.9002C20.0542 19.1055 19.0991 20.0585 17.8917 20.5269C17.1924 20.7886 16.4536 20.93 15.7069 20.9451C14.7525 21 14.4396 21 11.995 21ZM11.961 4.57984C9.51638 4.57984 9.26252 4.59182 8.30805 4.63473C7.73835 4.64227 7.17416 4.74725 6.63998 4.94511C5.85117 5.24652 5.22699 5.86726 4.92193 6.65369C4.72226 7.19291 4.61711 7.76245 4.6111 8.33733C4.55813 9.30439 4.55813 9.55788 4.55813 11.982C4.55813 14.3772 4.56713 14.6677 4.6111 15.6287C4.62005 16.1978 4.72514 16.7613 4.92193 17.2954C5.22744 18.0813 5.85151 18.7016 6.63998 19.003C7.1738 19.2022 7.73822 19.3072 8.30805 19.3134C9.27551 19.3693 9.53037 19.3693 11.961 19.3693C14.4127 19.3693 14.6665 19.3573 15.613 19.3134C16.1831 19.3064 16.7477 19.2014 17.2821 19.003C18.0661 18.699 18.6862 18.0801 18.9911 17.2974C19.1904 16.7577 19.2955 16.1879 19.3019 15.6128H19.3129C19.3559 14.6587 19.3559 14.4042 19.3559 11.9661C19.3559 9.52794 19.3449 9.27146 19.3019 8.31836C19.293 7.74995 19.1879 7.18714 18.9911 6.65369C18.6869 5.86983 18.0667 5.24979 17.2821 4.94511C16.7478 4.74625 16.1831 4.64124 15.613 4.63473C14.6465 4.57984 14.3937 4.57984 11.961 4.57984ZM11.995 16.5918C10.126 16.593 8.4404 15.4698 7.72424 13.746C7.00808 12.0221 7.40246 10.0373 8.72345 8.71703C10.0444 7.3968 12.0318 7.00127 13.7588 7.7149C15.4857 8.42854 16.612 10.1108 16.6124 11.977C16.6097 14.523 14.5446 16.5869 11.995 16.5918ZM11.995 8.98104C10.3391 8.98104 8.99667 10.3215 8.99667 11.975C8.99667 13.6286 10.3391 14.9691 11.995 14.9691C13.6509 14.9691 14.9933 13.6286 14.9933 11.975C14.9895 10.3231 13.6493 8.98488 11.995 8.98104ZM16.7923 8.26946C16.1981 8.26726 15.7178 7.78502 15.7189 7.19162C15.72 6.59823 16.2021 6.11777 16.7963 6.11777C17.3906 6.11777 17.8726 6.59822 17.8737 7.19162C17.874 7.47791 17.7601 7.75252 17.5572 7.95477C17.3543 8.15702 17.079 8.27026 16.7923 8.26946Z" fill="black"/>
</svg>
