<svg width="24" height="24" viewBox="0 0 24 24" fill="none" xmlns="http://www.w3.org/2000/svg">
<path d="M18.9975 7.20751C19.726 6.76595 20.2712 6.07066 20.5311 5.25147C19.8465 5.66328 19.0975 5.95336 18.3165 6.10919C17.2336 4.94787 15.518 4.66525 14.1282 5.41927C12.7384 6.17328 12.0185 7.77725 12.3708 9.33492C9.56666 9.19219 6.95413 7.84929 5.18329 5.64037C4.25912 7.25646 4.73139 9.32239 6.26255 10.3616C5.70887 10.3435 5.16746 10.1915 4.68348 9.91827C4.68348 9.93311 4.68348 9.94794 4.68348 9.96277C4.6838 11.6462 5.85406 13.0963 7.48159 13.4299C6.96802 13.5716 6.42932 13.5924 5.90659 13.4909C6.3643 14.9305 7.67303 15.9168 9.16469 15.9462C7.92925 16.9293 6.40353 17.4624 4.83301 17.4598C4.55464 17.4602 4.27649 17.444 4 17.4112C5.59483 18.4502 7.45101 19.0017 9.34674 18.9998C11.9841 19.0181 14.5188 17.964 16.3837 16.0731C18.2486 14.1823 19.2881 11.6125 19.2698 8.93861C19.2698 8.78535 19.2662 8.63293 19.2592 8.48132C19.9422 7.98086 20.5317 7.36088 21 6.65052C20.3637 6.93648 19.6887 7.12422 18.9975 7.20751Z" fill="black"/>
</svg>
